<?xml version="1.0" encoding="UTF-8" standalone="no"?>
<!-- Created with Inkscape (http://www.inkscape.org/) -->

<svg
   width="28.639996mm"
   height="37.159286mm"
   viewBox="0 0 28.639994 37.159286"
   version="1.1"
   id="svg1"
   xml:space="preserve"
   xmlns="http://www.w3.org/2000/svg"
   xmlns:svg="http://www.w3.org/2000/svg"><defs
     id="defs1" /><g
     id="g2"><g
       id="g1"
       transform="translate(-2.2863149,-65.276107)"><path
         style="fill:#c2a679;fill-opacity:1;stroke:#143219;stroke-width:0;stroke-dasharray:none;stroke-opacity:1"
         d="m 13.227507,76.763321 c 0.238166,-0.443678 0.390713,-0.961011 0.751311,-1.624621 0.332694,-0.61227 0.111036,-0.595687 0.784792,-1.322157 0.24009,-0.25887 1.502537,-1.65564 2.12862,-2.1064 2.273191,-1.63661 2.431325,-1.83325 3.582315,-2.17725 1.511158,-0.45165 2.239817,-0.592287 3.268408,-0.119337 0.478839,0.22016 3.212659,1.804579 4.430516,2.755305 l 1.59484,1.24502 -0.739714,0.723712 c -0.501315,0.52773 -1.120266,1.48068 -2.256946,2.33004 -1.420809,1.06168 -2.361867,1.18436 -5.200479,2.13148 -0.560467,0.187 -0.512516,0.37126 -0.608956,1.45557 -0.05609,0.63061 -0.07786,1.05618 -0.291244,1.10698 -0.380137,0.0905 -0.622991,-0.0131 -0.711409,-1.00425 -0.0706,-0.79145 -0.09551,-1.02268 -0.405474,-1.23879 -0.158612,-0.11059 -0.230874,-0.0513 -0.542803,-0.0632 -0.411706,-0.0157 -1.529541,-0.014 -2.526819,-0.21796 -1.10205,-0.22535 -1.884864,-0.11176 -2.010659,0.28154 -0.149194,0.46645 -0.297735,0.80154 -0.484786,1.00542 -0.265354,0.28922 -0.6978,0.009 -0.571724,-0.89778 0.06527,-0.46931 -0.008,-0.64723 -0.124304,-0.76044 -0.116345,-0.11322 -0.803749,-0.04471 -0.667349,-0.29897 0.273159,-0.50919 0.16233,-0.337093 0.315773,-0.675899 z"
         id="path2-1-7-7-4-5" /><path
         id="path1-11-1-2-8"
         style="fill:none;fill-opacity:0.5;stroke:#143219;stroke-width:0.149801;stroke-dasharray:none;stroke-opacity:1"
         d="m 6.3656826,65.294239 0.2727951,1.093386 c 0,0 0.262535,1.377048 0.38938,2.577578 0.07087,0.67076 0.195581,1.33846 0.20767,2.0128 0.01158,0.64647 -0.03394,1.29589 -0.129793,1.9354 -0.07855,0.52417 -0.206405,1.04184 -0.363424,1.5483 -0.120214,0.38774 -0.289243,0.75889 -0.441297,1.13542 -0.125719,0.31133 -0.241223,0.62758 -0.389381,0.92899 -0.210078,0.42737 -0.456827,0.83643 -0.706108,1.24245 -0.465074,0.75749 -1.217467,1.37369 -1.471507,2.22442 -0.15218,0.50965 0.02303,13.22909 0.02303,13.22909 0,0 0.02753,4.28108 0.129792,4.59331 0.140623,0.429337 1.09027,0.361267 1.09027,0.361267 l 0.207669,0.77416 0.259585,0.77415 v 0.64514 c 0,0 0.323508,0.97692 0.700891,1.29024 0.370296,0.30746 1.688237,0.30222 2.530986,0.21936 0.506838,-0.0498 1.3619343,0.0697 1.4666703,-0.4258 l 3.5e-5,-2e-5 c 0.07008,-0.33156 -1.4536913,-2.19344 -1.4536913,-2.19344 l -0.259586,-0.87738 -0.311507,-0.361267 c 0,0 -0.331325,-0.52956 -0.41534,-0.82577 -0.25456,-0.89743 -0.211122,-1.85502 -0.241774,-2.78695 -0.03168,-0.96308 -0.0263,-1.93041 0.06006,-2.89018 0.103043,-1.14513 0.270492,-2.28946 0.545137,-3.40628 0.246918,-1.00407 0.636557,-1.96842 0.986433,-2.94179 0.408255,-1.13579 0.777996,-2.29074 1.2979413,-3.38048 0.230888,-0.48393 0.533259,-0.93084 0.804721,-1.39348 0.273658,-0.46639 0.561673,-0.92443 0.830681,-1.39348 0.50826,-0.88622 0.997913,-1.783 1.479652,-2.68374 0.443279,-0.82883 0.63691,-1.83121 1.297937,-2.5031 0.796173,-0.80925 1.364314,-1.46358 2.12862,-2.1064 0.446819,-0.37581 0.931551,-0.70743 1.427734,-1.01602 0.692581,-0.43074 1.399794,-0.85151 2.154581,-1.16123 0.425356,-0.17454 0.867025,-0.33549 1.323896,-0.38708 0.430678,-0.0486 0.874212,-0.0137 1.297941,0.0774 0.543176,0.11681 1.060538,0.34515 1.557527,0.59352 0.475891,0.23782 0.903122,0.56268 1.349857,0.85157 0.470707,0.3044 0.946002,0.60266 1.401774,0.92899 0.915516,0.65551 2.673753,2.06441 2.673753,2.06441 l 0.712804,0.59165 0.0018,-8.954545 m -1.025588,8.115073 -0.739714,0.723712 c -0.520289,0.509034 -1.120266,1.48068 -2.256946,2.33004 -1.420809,1.06168 -2.361867,1.18436 -5.200479,2.13148 -0.560467,0.187 -0.512516,0.37126 -0.608956,1.45557 -0.05609,0.63061 -0.07786,1.05618 -0.291244,1.10698 -0.380137,0.0905 -0.622991,-0.0131 -0.711409,-1.00425 -0.0706,-0.79145 -0.09551,-1.02268 -0.405474,-1.23879 -0.158612,-0.11059 -0.230874,-0.0513 -0.542803,-0.0632 -0.411706,-0.0157 -1.529541,-0.014 -2.526819,-0.21796 -1.10205,-0.22535 -1.884864,-0.11176 -2.010659,0.28154 -0.149194,0.46645 -0.297735,0.80154 -0.484786,1.00542 -0.265354,0.28922 -0.6978,0.009 -0.571724,-0.89778 0.06527,-0.46931 -0.008,-0.64723 -0.124304,-0.76044 -0.116345,-0.11322 -0.471342,-0.157888 -0.725157,-0.295118" /></g><path
       id="text1-5-6"
       style="font-weight:600;font-size:52.9167px;font-family:'DM Sans';-inkscape-font-specification:'DM Sans Semi-Bold';letter-spacing:1.32292px;fill:#143219;stroke:#143219;stroke-width:0.1"
       d="M 0.05,0.06762084 V 37.109288 H 22.910104 V 32.134915 H 6.4 V 20.852399 c -0.2396193,0.654071 -0.4701005,1.31127 -0.6361369,1.986442 -0.274645,1.11682 -0.4421433,2.261381 -0.5451863,3.406511 -0.08636,0.95977 -0.092141,1.927182 -0.060461,2.890262 0.030652,0.93193 -0.012714,1.88948 0.2418457,2.78691 0.084015,0.29621 0.4154786,0.82579 0.4154786,0.82579 l 0.3116088,0.361218 0.2594157,0.877466 c 0,0 1.5237381,1.861588 1.4536581,2.193148 -0.104736,0.4955 -0.9597392,0.376014 -1.4665772,0.425814 -0.842749,0.08286 -2.1608156,0.08835 -2.5311116,-0.219109 -0.377383,-0.31332 -0.7007324,-1.29036 -0.7007324,-1.29036 V 34.451569 L 2.8823853,33.677456 2.674646,32.902826 c 0,0 -0.9497497,0.06812 -1.0903727,-0.361218 -0.102262,-0.31223 -0.1297079,-4.593001 -0.1297079,-4.593001 0,0 -0.1754343,-12.719517 -0.023254,-13.229167 0.25404,-0.85073 1.0066708,-1.46718 1.4717448,-2.22467 0.249281,-0.40602 0.4958221,-0.814932 0.7059001,-1.242302 0.148158,-0.30141 0.2639213,-0.617812 0.3896403,-0.929142 C 4.1506502,9.9467954 4.3196989,9.5757343 4.4399129,9.1879943 4.5969319,8.6815343 4.7246483,8.1639384 4.8031983,7.6397684 4.8990513,7.0002584 4.9444861,6.350956 4.9329061,5.704486 4.9208171,5.030146 4.7960368,4.362449 4.7251668,3.691689 4.5983218,2.491159 4.3360433,1.1140686 4.3360433,1.1140686 L 4.0750773,0.06762084 Z" /><rect
       style="fill:#ffffff;fill-opacity:1;stroke:#ffffff;stroke-width:0;stroke-linejoin:bevel"
       id="rect2"
       width="0.25514475"
       height="8.8343868"
       x="28.384851"
       y="0.031893089" /></g></svg>
